# xmcd
# 
# Track frame offsets:
#     150
#     20015
#     22622
#     41081
#     62012
#     76582
#     96436
#     124632
# 
# Disc length: 1883
# 
# Revision: 0
# Processed by: cddbd v1.5.2PL0 Copyright (c) Steve Scherf et al.
# Submitted via: fre:ac v1.0.17
# 
DISCID=56075908
DTITLE=メレンゲ - アポリア
DYEAR=2011
DGENRE=Pop
TTITLE0=旅人
TTITLE1=untitled
TTITLE2=夢の続き
TTITLE3=アルカディア
TTITLE4=ルゥリィ
TTITLE5=ムーンライト
TTITLE6=火の鳥
TTITLE7=嘲笑
EXTD=
EXTT0=
EXTT1=
EXTT2=
EXTT3=
EXTT4=
EXTT5=
EXTT6=
EXTT7=
PLAYORDER=
